<?xml version="1.0" encoding="utf-8"?>
<!-- Generator: Adobe Illustrator 22.0.0, SVG Export Plug-In . SVG Version: 6.00 Build 0)  -->
<svg version="1.1" id="圖層_1" xmlns="http://www.w3.org/2000/svg" xmlns:xlink="http://www.w3.org/1999/xlink" x="0px" y="0px"
	 viewBox="0 0 841.9 595.3" style="enable-background:new 0 0 841.9 595.3;" xml:space="preserve">
<style type="text/css">
	.st0{fill:none;}
	.st1{fill:#FAFAFA;}
	.st2{fill:#FFFFFF;}
	.st3{font-family:'Bauhaus93';}
	.st4{font-size:12px;}
</style>
<g>
	<g>
		<path d="M195.9,146.6h35.4V159h-20.5v14.3H230v12.4h-19.2v27.4h-14.9V146.6z"/>
		<path d="M237.5,161.3h14.8v51.9h-14.8V161.3z M237.6,143.4h14.8v12.2h-14.8V143.4z"/>
		<path d="M261.1,177.6c0-10.7,0-13.6-0.1-16.3h14.2c0.2,1.1,0.4,3.3,0.4,4.8c1.6-2.6,4.9-5.7,11.1-5.7c8.6,0,12.8,5.6,12.8,15.5
			v37.3h-14.8v-34.5c0-4-0.7-6.3-4.2-6.3c-3.2,0-4.7,1.8-4.7,7.5v33.3h-14.8V177.6z"/>
		<path d="M346.5,143.4v54.3c0,7.1,0.1,12.7,0.2,15.4h-14.2c-0.2-1.4-0.4-3.7-0.4-5.1c-1.9,3.8-5.1,6-11,6
			c-9.8,0-14.5-8.2-14.5-27.3c0-17.3,5.6-26.3,16.4-26.3c5,0,7.7,1.8,8.8,3.7v-20.7H346.5z M321.6,186.9c0,11.6,1.4,15.2,5.1,15.2
			c4.4,0,5.3-3.4,5.3-15.6c0-11.1-0.6-14.2-4.9-14.2C323.6,172.4,321.6,174.9,321.6,186.9z"/>
		<path d="M355.7,146.6h21.5c11.3,0,19.5,6.4,19.5,20.2c0,13.9-7.3,20.4-20.2,20.4h-5.9v26h-14.9V146.6z M370.6,175.4h3.9
			c5.2,0,7.1-2.6,7.1-8.8c0-6.2-2.6-8.6-6.8-8.6h-4.2V175.4z"/>
	</g>
</g>
<rect x="128" y="252" class="st0" width="69" height="43"/>
<path class="st1" d="M211.3,478.2h-10v-24.1c0-4.4,1.1-8,3.2-10.8c1.2-1.6,2.8-2.9,4.7-3.8c1.9-0.9,3.8-1.4,5.8-1.4
	c4,0,7.3,1.4,10,4.3c2.7,2.9,4.1,6.5,4.1,10.7c0,4.1-1.4,7.6-4.1,10.6c-2.7,3-5.9,4.5-9.6,4.5c-0.6,0-1.5-0.1-2.7-0.2v-11.9
	c0.8,0.7,1.6,1.1,2.5,1.1c1,0,1.9-0.4,2.7-1.2c0.7-0.8,1.1-1.8,1.1-3c0-1.1-0.4-2.1-1.1-2.9c-0.8-0.8-1.7-1.2-2.8-1.2
	c-2.6,0-3.8,1.9-3.8,5.8V478.2z"/>
<path class="st1" d="M246.1,438c3.8,0,7,1.5,9.7,4.4s4,6.5,4,10.6c0,4.2-1.4,7.7-4.1,10.7c-2.7,2.9-6,4.4-9.9,4.4
	c-3.9,0-7.2-1.5-9.9-4.4c-2.7-2.9-4.1-6.5-4.1-10.7c0-4.2,1.4-7.8,4.1-10.7S242.1,438,246.1,438z M245.9,448.7c-1.1,0-2,0.4-2.7,1.3
	s-1.1,1.9-1.1,3.1c0,1.2,0.4,2.2,1.1,3.1c0.8,0.9,1.7,1.3,2.7,1.3c1.1,0,2-0.4,2.7-1.3c0.8-0.9,1.1-1.9,1.1-3.1
	c0-1.2-0.4-2.2-1.1-3.1S246.9,448.7,245.9,448.7z"/>
<path class="st1" d="M280.7,439v11.4c-1.4,0-2.4,0.3-2.9,0.9s-0.9,1.7-1,3.4c-0.5,5.6-2.5,9.5-6,11.8c-1.9,1.2-4.5,1.8-8,1.8h-1.4
	v-11.5h0.5c1.6,0,2.7-0.4,3.4-1.1c0.7-0.7,1.1-2,1.2-3.8c0.1-3,0.4-5,0.8-6.2c0.4-1.2,1.1-2.4,2.2-3.6c2-2.1,4.7-3.1,8.1-3.1H280.7z
	"/>
<path class="st1" d="M300.7,439v11.4c-1.4,0-2.4,0.3-2.9,0.9s-0.9,1.7-1,3.4c-0.5,5.6-2.5,9.5-6,11.8c-1.9,1.2-4.5,1.8-8,1.8h-1.4
	v-11.5h0.5c1.6,0,2.7-0.4,3.4-1.1c0.7-0.7,1.1-2,1.2-3.8c0.1-3,0.4-5,0.8-6.2c0.4-1.2,1.1-2.4,2.2-3.6c2-2.1,4.7-3.1,8.1-3.1H300.7z
	"/>
<path class="st1" d="M313.9,438.6v28.9h-10v-28.9H313.9z M309,425.7c1.4,0,2.5,0.5,3.5,1.6c1,1,1.5,2.3,1.5,3.7
	c0,1.5-0.5,2.7-1.4,3.7s-2.1,1.4-3.6,1.4c-1.5,0-2.7-0.5-3.6-1.4s-1.4-2.2-1.4-3.7c0-1.4,0.5-2.6,1.5-3.7
	C306.4,426.2,307.6,425.7,309,425.7z"/>
<path class="st1" d="M329.2,427.9v23.7c0,3.8,1.3,5.8,3.8,5.8c1.1,0,2-0.4,2.8-1.2c0.8-0.8,1.1-1.8,1.1-2.9c0-1.2-0.4-2.2-1.1-3
	s-1.6-1.2-2.6-1.2c-0.7,0-1.6,0.3-2.5,1v-11.9c1.2-0.1,2.1-0.2,2.7-0.2c3.8,0,7,1.5,9.7,4.4c2.7,2.9,4,6.5,4,10.6
	c0,4.2-1.4,7.8-4.1,10.7c-2.7,2.9-6.1,4.3-10,4.3c-2,0-3.9-0.5-5.8-1.4c-1.9-0.9-3.5-2.2-4.7-3.8c-2.1-2.8-3.2-6.4-3.2-10.8v-24.1
	H329.2z"/>
<path class="st1" d="M361.4,427.9v39.6h-10v-39.6H361.4z"/>
<path class="st1" d="M393.4,454.8h-15.1c-0.2-0.8-0.3-1.6-0.3-2.3c0-1,0.2-1.9,0.5-2.8h5.1c-0.4-2.1-1.5-3.2-3.3-3.2
	c-1.2,0-2.3,0.6-3,1.7c-0.8,1.2-1.2,2.6-1.2,4.4c0,1.9,0.4,3.4,1.1,4.6c0.8,1.2,1.7,1.7,3,1.7c1,0,2-0.5,2.9-1.6l5.7,7.4
	c-2.7,2.3-5.6,3.4-8.8,3.4c-4,0-7.3-1.4-10-4.3c-2.7-2.9-4-6.4-4-10.7c0-4.2,1.4-7.8,4.1-10.7c2.7-2.9,6-4.4,10-4.4
	c3.9,0,7.1,1.4,9.7,4.3c2.6,2.9,3.9,6.4,3.9,10.5C393.5,453.2,393.5,453.9,393.4,454.8z"/>
<path d="M318,337.2l1,4.3c0,0.1,0,0.3,0,0.4c0,0.3-0.3,0.4-1,0.4c-0.4,0-0.8,0-1-0.1s-0.4-0.3-0.7-0.7c-0.3-0.5-0.8-1-1.4-1.7
	c-0.6-0.6-1.2-1-1.6-1c-0.2,0-0.4,0.1-0.5,0.2c-0.1,0.1-0.2,0.3-0.2,0.5c0,0.5,0.9,2,2.7,4.5c1.6,2.1,2.6,3.8,3.2,5
	c0.6,1.2,0.8,2.6,0.8,4.1c0,1.6-0.4,2.9-1.3,3.8c-0.8,0.9-1.8,1.3-3,1.3c-0.7,0-1.5-0.2-2.3-0.6c-0.4-0.2-0.7-0.4-0.9-0.4
	c-0.2,0-0.3,0.1-0.3,0.4c0,0.3-0.1,0.5-0.2,0.5s-0.4,0.1-1,0.1c-0.4,0-0.7-0.1-0.8-0.2s-0.2-0.3-0.3-0.5l-0.9-4.3
	c0-0.2-0.1-0.3-0.1-0.4c0-0.3,0.4-0.4,1.2-0.4c0.4,0,0.7,0,0.9,0.1c0.2,0.1,0.4,0.4,0.6,0.8c1,1.7,1.9,2.5,2.8,2.5
	c0.6,0,0.8-0.3,0.8-0.8c0-0.5-0.2-1.1-0.6-1.8c-0.4-0.7-1.2-1.9-2.4-3.6c-1.3-1.8-2.2-3.2-2.7-4.4s-0.8-2.4-0.8-3.6
	c0-1.6,0.4-2.9,1.3-3.7c0.8-0.8,1.9-1.2,3.1-1.2c0.6,0,1.4,0.2,2.2,0.5c0.4,0.2,0.7,0.3,0.8,0.3c0.2,0,0.3-0.1,0.4-0.3
	c0-0.2,0.1-0.4,0.3-0.4c0.1-0.1,0.5-0.1,0.9-0.1c0.3,0,0.5,0,0.6,0.1C317.8,336.8,317.9,336.9,318,337.2z"/>
<path d="M322.1,336.8v-1c0-0.9,0.4-1.7,1.2-2.4c0.8-0.7,2-1,3.5-1c2,0,3.1,0.6,3.1,1.8c0,0.6-0.2,1-0.6,1.2
	c-0.4,0.2-0.8,0.4-1.1,0.4c-0.4,0-0.9-0.2-1.5-0.5c-0.6-0.3-1-0.4-1.2-0.4c-0.3,0-0.5,0.1-0.7,0.3c-0.2,0.2-0.3,0.4-0.3,0.6
	c0,0.3,0.1,0.5,0.4,0.7s0.5,0.3,0.8,0.3h3.2c0.4,0,0.6,0.2,0.6,0.5v0.9c0,0.3-0.1,0.5-0.4,0.6c-0.5,0.2-0.8,0.7-0.8,1.3v15.1
	c0,0.2,0.2,0.4,0.6,0.6c0.2,0.1,0.3,0.2,0.4,0.3s0.1,0.3,0.1,0.6c0,0.5,0,0.8,0,0.9c0,0.1-0.2,0.1-0.4,0.1h-7.4
	c-0.3,0-0.5-0.1-0.5-0.4v-1c0-0.3,0.1-0.5,0.4-0.6c0.4-0.1,0.7-0.5,0.7-1.1v-14.8c0-0.4-0.2-0.7-0.7-1c-0.3-0.2-0.4-0.4-0.4-0.7
	v-0.9c0-0.3,0.2-0.5,0.5-0.5H322.1z"/>
<path d="M341.9,336.8c0.4-0.3,0.6-0.6,0.6-0.8c0-0.3-0.2-0.5-0.7-0.8c-0.7-0.3-1-0.7-1-1.2c0-1,0.8-1.4,2.4-1.4c1,0,1.7,0.2,2.1,0.5
	s0.7,0.7,0.7,1.2c0,0.9-0.8,2-2.4,3.2c2.7,1.6,4.1,3.8,4.1,6.6c0,2.4-0.8,4.3-2.4,5.7c-1.6,1.4-3.4,2.1-5.5,2.1
	c-0.6,0-1.4-0.1-2.1-0.3c-0.4-0.1-0.7-0.1-0.9-0.1c-0.4,0-0.8,0.1-1.3,0.4c-0.4,0.2-0.7,0.5-0.7,0.8c0,0.5,0.7,0.8,2,0.8h5.1
	c1.8,0,3.3,0.3,4.4,0.9c1.2,0.6,1.7,1.6,1.7,3c0,2.9-3,4.4-8.9,4.4c-2.3,0-4.1-0.2-5.5-0.6c-1.4-0.4-2.1-1-2.1-1.8
	c0-0.4,0.1-0.8,0.4-1c0.3-0.3,0.8-0.5,1.5-0.8c0.1,0,0.2-0.1,0.4-0.2c-1.7-0.6-2.5-1.6-2.5-3.1c0-1.6,1.2-2.8,3.6-3.6
	c-2.3-1.5-3.4-3.5-3.4-6.1c0-2.3,0.8-4.2,2.3-5.7c1.6-1.5,3.4-2.2,5.7-2.2C340.1,336.6,340.9,336.7,341.9,336.8z M336.3,357.8
	c-0.8,0.3-1.2,0.6-1.2,1s0.3,0.7,0.9,0.9c0.6,0.2,1.8,0.3,3.6,0.3c3.1,0,4.7-0.5,4.7-1.4c0-0.5-0.5-0.8-1.6-0.8h-5.2
	C337.1,357.9,336.7,357.9,336.3,357.8z M340.9,340.7c0-1.3-0.4-2-1.3-2c-0.4,0-0.8,0.2-1.1,0.6c-0.3,0.4-0.4,0.9-0.4,1.4v7.7
	c0,0.4,0.1,0.8,0.4,1.1s0.6,0.4,1,0.4c0.4,0,0.8-0.2,1-0.5c0.3-0.3,0.4-0.7,0.4-1.2V340.7z"/>
<path d="M356.8,338.8c1.9-1.5,3.6-2.2,5-2.2c1.1,0,2,0.3,2.8,1c0.8,0.7,1.2,1.5,1.2,2.6v14.7c0,0.4,0.1,0.7,0.4,0.8
	c0.4,0.2,0.6,0.6,0.6,1c0,0.5,0,0.8-0.1,0.9c-0.1,0.1-0.3,0.2-0.6,0.2h-4.7c-0.4,0-0.8-0.2-1.1-0.7c-0.3-0.5-0.5-1.1-0.5-1.8V341
	c0-0.3-0.1-0.5-0.3-0.7c-0.2-0.2-0.5-0.3-0.8-0.3c-0.5,0-1,0.2-1.7,0.7v14.2c0,0.3,0.2,0.6,0.5,0.9c0.3,0.3,0.5,0.5,0.5,0.7
	c0,0.7,0,1.1-0.1,1.2c0,0.1-0.3,0.1-0.7,0.1h-6.7c-0.3,0-0.5,0-0.6-0.1s-0.1-0.3-0.1-0.7c0-0.4,0-0.7,0.1-0.8s0.2-0.3,0.5-0.4
	c0.4-0.2,0.5-0.5,0.5-0.9V336c0-0.7-0.3-1.1-0.8-1.2c-0.3-0.1-0.4-0.2-0.4-0.4v-1.1c0-0.2,0.2-0.3,0.5-0.3h6.3
	c0.5,0,0.7,0.2,0.7,0.6V338.8z"/>
<path d="M377.9,337.2l1,4.3c0,0.1,0,0.3,0,0.4c0,0.3-0.3,0.4-1,0.4c-0.4,0-0.8,0-1-0.1s-0.4-0.3-0.7-0.7c-0.3-0.5-0.8-1-1.4-1.7
	c-0.6-0.6-1.2-1-1.6-1c-0.2,0-0.4,0.1-0.5,0.2c-0.1,0.1-0.2,0.3-0.2,0.5c0,0.5,0.9,2,2.7,4.5c1.6,2.1,2.6,3.8,3.2,5
	c0.6,1.2,0.8,2.6,0.8,4.1c0,1.6-0.4,2.9-1.3,3.8c-0.8,0.9-1.8,1.3-3,1.3c-0.7,0-1.5-0.2-2.3-0.6c-0.4-0.2-0.7-0.4-0.9-0.4
	c-0.2,0-0.3,0.1-0.3,0.4c0,0.3-0.1,0.5-0.2,0.5s-0.4,0.1-1,0.1c-0.4,0-0.7-0.1-0.8-0.2s-0.2-0.3-0.3-0.5l-0.9-4.3
	c0-0.2-0.1-0.3-0.1-0.4c0-0.3,0.4-0.4,1.2-0.4c0.4,0,0.7,0,0.9,0.1c0.2,0.1,0.4,0.4,0.6,0.8c1,1.7,1.9,2.5,2.8,2.5
	c0.6,0,0.8-0.3,0.8-0.8c0-0.5-0.2-1.1-0.6-1.8c-0.4-0.7-1.2-1.9-2.4-3.6c-1.3-1.8-2.2-3.2-2.7-4.4s-0.8-2.4-0.8-3.6
	c0-1.6,0.4-2.9,1.3-3.7c0.8-0.8,1.9-1.2,3.1-1.2c0.6,0,1.4,0.2,2.2,0.5c0.4,0.2,0.7,0.3,0.8,0.3c0.2,0,0.3-0.1,0.4-0.3
	c0-0.2,0.1-0.4,0.3-0.4c0.1-0.1,0.5-0.1,0.9-0.1c0.3,0,0.5,0,0.6,0.1C377.8,336.8,377.9,336.9,377.9,337.2z"/>
<path d="M380.8,337.1v-1c0-0.9,0.4-1.7,1.2-2.4c0.8-0.7,2-1,3.5-1c2,0,3.1,0.6,3.1,1.8c0,0.6-0.2,1-0.6,1.2
	c-0.4,0.2-0.8,0.4-1.1,0.4c-0.4,0-0.9-0.2-1.5-0.5c-0.6-0.3-1-0.4-1.2-0.4c-0.3,0-0.5,0.1-0.7,0.3c-0.2,0.2-0.3,0.4-0.3,0.6
	c0,0.3,0.1,0.5,0.4,0.7s0.5,0.3,0.8,0.3h3.2c0.4,0,0.6,0.2,0.6,0.5v0.9c0,0.3-0.1,0.5-0.4,0.6c-0.5,0.2-0.8,0.7-0.8,1.3v15.1
	c0,0.2,0.2,0.4,0.6,0.6c0.2,0.1,0.3,0.2,0.4,0.3s0.1,0.3,0.1,0.6c0,0.5,0,0.8,0,0.9c0,0.1-0.2,0.1-0.4,0.1h-7.4
	c-0.3,0-0.5-0.1-0.5-0.4v-1c0-0.3,0.1-0.5,0.4-0.6c0.4-0.1,0.7-0.5,0.7-1.1v-14.8c0-0.4-0.2-0.7-0.7-1c-0.3-0.2-0.4-0.4-0.4-0.7
	v-0.9c0-0.3,0.2-0.5,0.5-0.5H380.8z"/>
<text transform="matrix(1 0 0 1 209.6665 356.333)" class="st2 st3 st4">possible</text>
</svg>
